<svg xmlns="http://www.w3.org/2000/svg">
	<symbol id="door">
		<g>
			<path d="M62.666,32.316L57.758,21.53c-0.457-1.007-1.646-1.449-2.648-0.992c-1.006,0.457-1.45,1.644-0.992,2.648l3.365,7.397
				H44.481c-1.104,0-2,0.896-2,2s0.896,2,2,2h13.69l-4.055,8.912c-0.458,1.004-0.014,2.191,0.992,2.648
				c0.269,0.121,0.55,0.18,0.827,0.18c0.76,0,1.486-0.436,1.821-1.172l4.939-10.855c0.104-0.196,0.172-0.407,0.206-0.625
				C62.988,33.207,62.901,32.726,62.666,32.316z"/>
			<path d="M51.583,47.577c-1.104,0-2,0.895-2,2v8.006h-11V15.269c0-1.722-0.81-3.25-2.445-3.795L24.536,7.583h25.047v9.994
				c0,1.104,0.896,2,2,2s2-0.896,2-2v-12c0-1.104,0.003-1.994-1.102-1.994H12.609l-0.325-0.109c-0.413-0.138-0.694-0.205-1.119-0.205
				c-0.829,0-1.94,0.258-2.63,0.755C7.492,4.776,6.583,5.983,6.583,7.269v47.572c0,1.721,1.393,3.25,3.026,3.795l24.146,8
				c0.413,0.137,0.913,0.205,1.337,0.205c0.83,0,1.395-0.258,2.084-0.756c1.043-0.752,1.407-1.959,1.407-3.244v-1.258h13.898
				c1.104,0,1.102-0.902,1.102-2.006v-10C53.583,48.472,52.688,47.577,51.583,47.577z M34.583,62.841l-24-8V7.583V7.504L10.8,7.345
				l23.783,7.924V62.841z"/>
			<path d="M30.583,47.577c0.553,0,1-0.447,1-1v-6c0-0.553-0.447-1-1-1s-1,0.447-1,1v6C29.583,47.13,30.03,47.577,30.583,47.577z"/>
		</g>
	</symbol>	

	<symbol id="copy" fill="#787878">
		<path d="M 4 4 L 4 24 L 11 24 L 11 22 L 6 22 L 6 6 L 18 6 L 18 7 L 20 7 L 20 4 Z M 12 8 L 12 28 L 28 28 L 28 8 Z M 14 10 L 26 10 L 26 26 L 14 26 Z"/>
	</symbol>	

	<symbol id="refresh-message" fill="none">
		<path d="M20.9844 10H17M20.9844 10V6M20.9844 10L17.6569 6.34315C14.5327 3.21895 9.46734 3.21895 6.34315 6.34315C3.21895 9.46734 3.21895 14.5327 6.34315 17.6569C9.46734 20.781 14.5327 20.781 17.6569 17.6569C18.4407 16.873 19.0279 15.9669 19.4184 15" stroke="#787878" stroke-width="2" stroke-linecap="round" stroke-linejoin="round"/>
	</symbol>

	<symbol id="image-add">
		<path d="M4 5h13v7h2V5c0-1.103-.897-2-2-2H4c-1.103 0-2 .897-2 2v12c0 1.103.897 2 2 2h8v-2H4V5z"/><path d="m8 11-3 4h11l-4-6-3 4z"/><path d="M19 14h-2v3h-3v2h3v3h2v-3h3v-2h-3z"/>
	</symbol>	
</svg> 
